<svg viewBox="0 0 96 96" xmlns="http://www.w3.org/2000/svg" xmlns:xlink="http://www.w3.org/1999/xlink" id="Icons_Image" overflow="hidden"><path d="M78 65.6 64.31 43.78C64.065 43.3801 63.6289 43.1374 63.16 43.14 62.689 43.1398 62.2509 43.3815 62 43.78L58 50.2 66.58 64.08C67.3061 65.178 67.4622 66.5574 67 67.79L76.7 67.79C77.4943 67.8297 78.1704 67.2179 78.21 66.4236 78.2245 66.1342 78.1513 65.8472 78 65.6Z" fill="#FFFFFF"/><path d="M63.1 65.73 41.35 30.34C41.0709 29.9795 40.6357 29.7749 40.18 29.79L40 29.79 39.82 29.79C39.3643 29.7749 38.9291 29.9795 38.65 30.34L16.9 65.73C16.5919 66.1611 16.5495 66.7279 16.79 67.2 17.0326 67.6278 17.5135 67.8623 18 67.79L62 67.79C62.4865 67.8623 62.9674 67.6278 63.21 67.2 63.4505 66.7279 63.4081 66.1611 63.1 65.73ZM43.64 46.92 40.18 50 36.72 46.92 31 50.38 40 35.79 48.76 50Z" fill="#FFFFFF"/><circle cx="27" cy="32" r="3" fill="#FFFFFF"/><path d="M14 74 14 24 82 24 82 74ZM88 80 88 18 8 18 8 80Z" fill="#FFFFFF"/></svg>